<svg width="18" height="14" viewBox="0 0 18 14" fill="none" xmlns="http://www.w3.org/2000/svg">
<path d="M14.8333 0.555908H3.16666C2.50362 0.555908 1.86773 0.8193 1.39889 1.28814C0.930049 1.75698 0.666656 2.39287 0.666656 3.05591V11.3892C0.666656 12.0523 0.930049 12.6882 1.39889 13.157C1.86773 13.6258 2.50362 13.8892 3.16666 13.8892H14.8333C15.4964 13.8892 16.1322 13.6258 16.6011 13.157C17.0699 12.6882 17.3333 12.0523 17.3333 11.3892V3.05591C17.3333 2.39287 17.0699 1.75698 16.6011 1.28814C16.1322 0.8193 15.4964 0.555908 14.8333 0.555908ZM14.8333 2.22257L9.41666 5.94758C9.28997 6.02072 9.14627 6.05922 8.99999 6.05922C8.85371 6.05922 8.71001 6.02072 8.58332 5.94758L3.16666 2.22257H14.8333Z" fill="white"/>
</svg>
