<svg width="18" height="17" viewBox="0 0 18 17" fill="none" xmlns="http://www.w3.org/2000/svg">
<path d="M11.7062 11.6477L13.1062 10.2477C13.2948 10.0615 13.5334 9.93398 13.793 9.88073C14.0526 9.82747 14.3221 9.85073 14.5687 9.94768L16.275 10.6289C16.5242 10.7301 16.738 10.9028 16.8892 11.1252C17.0405 11.3477 17.1225 11.6099 17.125 11.8789V15.0039C17.1235 15.1869 17.0851 15.3677 17.0119 15.5354C16.9387 15.7032 16.8324 15.8544 16.6993 15.9799C16.5661 16.1055 16.409 16.2028 16.2372 16.266C16.0655 16.3292 15.8827 16.357 15.7 16.3477C3.74374 15.6039 1.33124 5.47893 0.874992 1.60393C0.853813 1.41364 0.873164 1.22102 0.931772 1.03875C0.990381 0.856476 1.08692 0.688677 1.21503 0.546392C1.34315 0.404107 1.49994 0.29056 1.67509 0.213222C1.85024 0.135884 2.03978 0.0965068 2.23124 0.0976818H5.24999C5.51937 0.0984792 5.78235 0.179849 6.00511 0.331325C6.22787 0.482801 6.40022 0.697457 6.49999 0.947682L7.18124 2.65393C7.2814 2.8996 7.30695 3.16933 7.25471 3.42944C7.20247 3.68954 7.07474 3.92849 6.88749 4.11643L5.48749 5.51643C5.48749 5.51643 6.29374 10.9727 11.7062 11.6477Z" fill="white"/>
</svg>
