<svg width="18" height="18" viewBox="0 0 18 18" fill="none" xmlns="http://www.w3.org/2000/svg">
<path d="M9 0.889404C4.405 0.889404 0.666672 4.62774 0.666672 9.22274V12.6752C0.666672 13.5286 1.41417 14.2227 2.33334 14.2227H3.16667C3.38769 14.2227 3.59965 14.1349 3.75593 13.9787C3.91221 13.8224 4.00001 13.6104 4.00001 13.3894V9.10357C4.00001 8.88256 3.91221 8.6706 3.75593 8.51431C3.59965 8.35803 3.38769 8.27024 3.16667 8.27024H2.41001C2.87334 5.04524 5.64834 2.55607 9 2.55607C12.3517 2.55607 15.1267 5.04524 15.59 8.27024H14.8333C14.6123 8.27024 14.4004 8.35803 14.2441 8.51431C14.0878 8.6706 14 8.88256 14 9.10357V14.2227C14 15.1419 13.2525 15.8894 12.3333 15.8894H10.6667V15.0561H7.33334V17.5561H12.3333C14.1717 17.5561 15.6667 16.0611 15.6667 14.2227C16.5858 14.2227 17.3333 13.5286 17.3333 12.6752V9.22274C17.3333 4.62774 13.595 0.889404 9 0.889404Z" fill="white"/>
</svg>
